Coordinates
version=1
nRows=14
nColumns=36
inDegrees=yes

Units are S.I. units (second, meters, Newtons, ...)
If the header above contains a line with 'inDegrees', this indicates whether rotational values are in degrees (yes) or radians (no).

endheader
time	pelvis_tilt	pelvis_list	pelvis_rotation	pelvis_tx	pelvis_ty	pelvis_tz	hip_flexion_r	hip_adduction_r	hip_rotation_r	knee_angle_r	knee_angle_r_beta	ankle_angle_r	subtalar_angle_r	mtp_angle_r	hip_flexion_l	hip_adduction_l	hip_rotation_l	knee_angle_l	knee_angle_l_beta	ankle_angle_l	subtalar_angle_l	mtp_angle_l	lumbar_extension	lumbar_bending	lumbar_rotation	arm_flex_r	arm_add_r	arm_rot_r	elbow_flex_r	pro_sup_r	arm_flex_l	arm_add_l	arm_rot_l	elbow_flex_l	pro_sup_l
      0.67000000	     -0.01147939	      3.23152061	     -2.38399530	      0.73195582	      0.93104255	     -0.25614728	    -11.82844339	     -2.59823308	      7.42261834	     34.63962256	      0.60457547	     -1.39120016	      6.98915480	     -6.86021062	     23.39352413	      5.27000466	      8.29684643	     19.39692833	      0.33854026	      0.32024628	      1.00967923	     -6.86021062	     -5.52938976	     -6.04563826	      0.93878369	    -16.67982797	     -4.76744331	    -10.64094448	     37.67935763	    111.55205621	     -8.96293173	     -7.45883264	    -21.52006334	     30.48121021	    108.78040724
      0.68000000	      0.06136256	      3.57390440	     -2.30725247	      0.74504856	      0.93307363	     -0.25748147	     -9.77579649	     -3.09433012	      7.10227659	     38.62842351	      0.67419318	     -4.82381452	      7.05886128	     -6.86991851	     22.55681925	      5.83728599	      8.50635834	     19.75033470	      0.34470837	      1.25471337	      0.81101156	     -6.86991851	     -5.54475365	     -6.49713285	      0.64654276	    -16.68342194	     -4.55898292	    -10.40931771	     37.52961128	    111.58254703	     -8.39842824	     -7.60116221	    -21.18355410	     30.31895645	    108.81698171
      0.69000000	      0.18754130	      3.88987167	     -2.30614999	      0.75783061	      0.93520060	     -0.25860514	     -7.67301292	     -3.55677417	      6.97915399	     42.51436037	      0.74201557	     -7.95741631	      7.21062383	     -6.87690218	     21.49306637	      6.30065736	      8.54121124	     19.73585276	      0.34445561	      2.17447676	      0.80119983	     -6.87690218	     -5.65484282	     -6.89860292	      0.35754282	    -16.65278012	     -4.36505454	    -10.19388764	     37.48888145	    111.61431091	     -7.82024175	     -7.72866670	    -20.88400997	     30.21861626	    108.85716325
      0.70000000	      0.17550730	      4.14410588	     -2.35669669	      0.77024259	      0.93709993	     -0.25955768	     -5.31964513	     -3.90855200	      7.01953806	     46.26594751	      0.80749312	    -10.62419460	      7.06854252	     -6.88504297	     20.52709518	      6.63371371	      8.47673209	     19.57956080	      0.34172780	      3.00568345	      1.01999985	     -6.88504297	     -5.61140727	     -7.21417415	      0.15661586	    -16.65222742	     -4.23608984	     -9.90067477	     37.45604211	    111.65702010	     -7.20035031	     -7.87704048	    -20.47099920	     30.09966235	    108.91714614
      0.71000000	      0.45665883	      4.11374589	     -2.39460260	      0.78221507	      0.93951135	     -0.26038620	     -3.40494680	     -3.85613377	      7.26102904	     49.54006150	      0.86463718	    -11.99669101	      7.04613312	     -6.88862951	     19.17106769	      6.65914329	      8.45033060	     19.25348520	      0.33603671	      3.58069047	      1.23235104	     -6.88862951	     -6.05397729	     -7.15570245	     -0.27402011	    -16.39809838	     -4.14613629	     -9.73034419	     37.51121211	    111.68187356	     -6.53901106	     -7.88947296	    -20.19306085	     30.09336720	    108.96110593
      0.72000000	      0.02719332	      4.35705439	     -2.63681805	      0.79405331	      0.94076279	     -0.26068947	     -0.45168708	     -4.09037434	      7.54106606	     52.91830156	      0.92359860	    -13.13643425	      6.01750500	     -6.92590624	     18.64194148	      6.76509950	      7.71874173	     18.94090613	      0.33058118	      4.86082614	      2.56199758	     -6.92590624	     -5.45616421	     -7.45485620	     -0.13955367	    -16.53726968	     -4.10668463	     -8.86953848	     37.37174203	    111.74488914	     -5.77289848	     -8.31180159	    -18.37822081	     29.44013897	    109.12524310
      0.73000000	     -0.04644137	      4.50662705	     -2.88034583	      0.80569417	      0.94266495	     -0.26109035	      1.94893817	     -4.21841913	      7.86575466	     55.72093013	      0.97251369	    -12.83981235	      5.46204374	     -6.93272809	     17.51003161	      6.87254317	      7.44506025	     18.21454403	      0.31790377	      5.45609626	      2.87528938	     -6.93272809	     -5.39569970	     -7.61766243	     -0.35773981	    -16.40291323	     -3.99415212	     -8.68087020	     37.42224851	    111.76394716	     -5.19315485	     -8.39647099	    -18.07766877	     29.50006991	    109.14544709
      0.74000000	     -0.25071998	      4.57960507	     -3.13450181	      0.81711692	      0.94437736	     -0.26142828	      4.47516864	     -4.22703218	      8.17913289	     58.18199303	      1.01546734	    -11.75631380	      4.59324151	     -6.94040664	     16.56886138	      6.86916016	      7.02351168	     17.54087731	      0.30614606	      5.99958084	      3.40922772	     -6.94040664	     -5.18231456	     -7.66400053	     -0.53436286	    -16.29559664	     -3.94034457	     -8.37418027	     37.37972481	    111.79408616	     -4.58943516	     -8.47563820	    -17.54831151	     29.52782358	    109.19122431
      0.75000000	     -0.54274959	      4.51523258	     -3.41425141	      0.82827221	      0.94603433	     -0.26158385	      7.03955992	     -4.02305687	      8.52714583	     60.19550951	      1.05060984	    -10.29217490	      3.75448805	     -6.96536694	     15.81076746	      6.65916625	      6.32939895	     17.01403234	      0.29695088	      6.80137255	      4.60699674	     -6.96536694	     -4.89602926	     -7.54132938	     -0.64144752	    -16.13272903	     -3.97462803	     -7.79647833	     37.24557616	    111.81828008	     -3.89796733	     -8.75786039	    -15.96045975	     29.19875879	    109.23327220
      0.76000000	     -0.68492079	      4.43293814	     -3.68486798	      0.83946885	      0.94801742	     -0.26184841	      9.30849842	     -3.80829080	      8.80566492	     61.63923257	      1.07580756	     -8.86572475	      2.56331249	     -6.97024833	     14.68036170	      6.52629269	      6.10424876	     16.09117181	      0.28084393	      7.18382641	      4.96209417	     -6.97024833	     -4.80330130	     -7.38647033	     -0.91637272	    -15.94043146	     -3.92075199	     -7.71395805	     37.25607960	    111.82174313	     -3.33191338	     -8.76821095	    -15.61355144	     29.32231133	    109.25234148
      0.77000000	     -0.92344779	      4.32924354	     -3.87285707	      0.85057594	      0.94980812	     -0.26222198	     11.62215519	     -3.61640830	      8.88090327	     62.68442502	      1.09404961	     -7.28622248	      1.21524643	     -6.97707791	     13.75025393	      6.37422528	      5.74444179	     15.31792057	      0.26734815	      7.53512178	      5.52672615	     -6.97707791	     -4.59279500	     -7.18618608	     -1.11346800	    -15.84390938	     -3.88809451	     -7.56689665	     37.15606911	    111.82955709	     -2.71536231	     -8.80764917	    -14.96863952	     29.48734482	    109.30479995
      0.78000000	     -1.13942664	      4.04985759	     -4.01099908	      0.86154438	      0.95169720	     -0.26248374	     13.76491874	     -3.17732140	      8.94995304	     63.19312032	      1.10292801	     -6.15759010	     -0.20770097	     -7.00645386	     12.87114719	      6.00195156	      5.17366455	     14.70020998	      0.25656706	      8.22772791	      6.83410353	     -7.00645386	     -4.45760728	     -6.77000663	     -1.23779265	    -15.77270182	     -3.89382776	     -7.39110682	     37.06041384	    111.82108929	     -1.91079032	     -9.07905893	    -12.87521878	     29.21291530	    109.31671192
      0.79000000	     -1.29570778	      3.73310641	     -4.08671794	      0.87258250	      0.95367638	     -0.26295099	     15.69962567	     -2.76295361	      8.93795560	     63.22101493	      1.10341487	     -4.98373432	     -1.12232566	     -7.00989032	     11.80453187	      5.68373865	      5.11885029	     13.85204997	      0.24176388	      8.42961504	      7.06301223	     -7.00989032	     -4.38340868	     -6.29765442	     -1.60878279	    -15.64209636	     -3.89438852	     -7.43050735	     37.08198356	    111.81515374	     -1.31497867	     -8.99434494	    -12.62641841	     29.46975688	    109.33963590
      0.80000000	     -1.35442767	      3.43853741	     -4.02622257	      0.88360622	      0.95573748	     -0.26349771	     17.34369280	     -2.41000593	      8.81274914	     62.76194028	      1.09540250	     -3.72748853	     -2.41578891	     -7.01909564	     10.67017770	      5.41749120	      5.13634153	     13.06730219	      0.22806745	      8.68602844	      7.61806510	     -7.01909564	     -4.47794643	     -5.87092168	     -1.98972941	    -15.57613952	     -3.85547682	     -7.48550749	     37.03051440	    111.80494759	     -0.65317422	     -9.02336420	    -11.89006826	     29.82612598	    109.40209995
